<?xml version="1.0" encoding="UTF-8"?>
<svg xmlns="http://www.w3.org/2000/svg" viewBox="0 0 24 24">
  <path fill="#8D6E63" d="M12 2C6.48 2 2 6.48 2 12s4.48 10 10 10 10-4.48 10-10S17.52 2 12 2zm0 3c1.66 0 3 1.34 3 3s-1.34 3-3 3-3-1.34-3-3 1.34-3 3-3zm0 14.2c-2.5 0-4.71-1.28-6-3.22.03-1.99 4-3.08 6-3.08 1.99 0 5.97 1.09 6 3.08-1.29 1.94-3.5 3.22-6 3.22z"/>
  <path fill="none" stroke="#D6D2CF" stroke-width="0.5" d="M12 2.25C6.62 2.25 2.25 6.62 2.25 12S6.62 21.75 12 21.75 21.75 17.38 21.75 12 17.38 2.25 12 2.25z"/>
</svg>